<?xml version="1.0" encoding="UTF-8"?>
<svg id="a" xmlns="http://www.w3.org/2000/svg" width="1572.89" height="1574.67" xmlns:xlink="http://www.w3.org/1999/xlink" version="1.1" viewBox="0 0 1572.89 1574.67">
  <!-- Generator: Adobe Illustrator 30.4.0, SVG Export Plug-In . SVG Version: 2.1.4 Build 226)  -->
  <defs>
    <radialGradient id="Dégradé_sans_nom" data-name="Dégradé sans nom" cx="786.42" cy="44.32" fx="786.42" fy="44.32" r="786.48" gradientTransform="translate(0 749.34)" gradientUnits="userSpaceOnUse">
      <stop offset=".06" stop-color="#2abdbb"/>
      <stop offset="1" stop-color="#2abdbb" stop-opacity=".3"/>
    </radialGradient>
    <radialGradient id="Dégradé_sans_nom_2" data-name="Dégradé sans nom 2" cx="786.42" cy="44.32" fx="786.42" fy="44.32" r="710.78" gradientTransform="translate(0 749.34)" gradientUnits="userSpaceOnUse">
      <stop offset=".06" stop-color="#2abdbb"/>
      <stop offset="1" stop-color="#2abdbb" stop-opacity=".3"/>
    </radialGradient>
    <radialGradient id="Dégradé_sans_nom_3" data-name="Dégradé sans nom 3" cx="786.42" cy="44.31" fx="786.42" fy="44.31" r="633.28" gradientTransform="translate(0 749.34)" gradientUnits="userSpaceOnUse">
      <stop offset=".06" stop-color="#2abdbb"/>
      <stop offset="1" stop-color="#2abdbb" stop-opacity=".3"/>
    </radialGradient>
  </defs>
  <path d="M786.42,7.18C352.02,7.18-.06,359.26-.06,793.65s352.08,786.48,786.48,786.48,786.48-352.08,786.48-786.48S1220.81,7.18,786.42,7.18Z" fill="url(#Dégradé_sans_nom)" isolation="isolate" opacity=".2"/>
  <path d="M786.42,82.88c-392.58,0-710.78,318.19-710.78,710.78s318.19,710.78,710.78,710.78,710.78-318.19,710.78-710.78S1179,82.88,786.42,82.88Z" fill="url(#Dégradé_sans_nom_2)" isolation="isolate" opacity=".2"/>
  <path d="M786.42,160.37c-349.79,0-633.28,283.5-633.28,633.28s283.5,633.28,633.28,633.28,633.28-283.5,633.28-633.28S1136.2,160.37,786.42,160.37Z" fill="url(#Dégradé_sans_nom_3)" isolation="isolate" opacity=".2"/>
  <metadata>
    <sfw xmlns="http://ns.adobe.com/SaveForWeb/1.0/">
      <slices/>
      <sliceSourceBounds x="-0.06" y="-5.46" width="1572.96" height="1572.95" bottomLeftOrigin="true"/>
    </sfw>
  </metadata>
</svg>